<svg fill="#00d66c" id="Capa_1" enable-background="new 0 0 512.09 512.09" height="512" viewBox="0 0 512.09 512.09" width="512" xmlns="http://www.w3.org/2000/svg">
    <g>
        <path d="m339.543 360.398h15v14.999h-15z" transform="matrix(.92 -.393 .393 .92 -116.631 165.922)"/>
        <path d="m512.09 183.458-256.045-109.385-111.265 47.534 5.893 13.793 105.372-45.017 217.865 93.075-217.865 93.076-177.043-75.635 157.322-8.822c3.331 7.594 10.912 12.916 19.72 12.916 11.873 0 21.533-9.66 21.533-21.534 0-11.873-9.66-21.533-21.533-21.533-9.661 0-17.854 6.396-20.573 15.176l-187.553 10.517-9.738-4.16 98.698-42.166-5.893-13.793-130.985 55.958 40.383 17.252v138.105h-13.435l-8.266 99.201h58.4l-8.266-99.201h-13.433v-131.696l45.811 19.571v122.084l154.852 66.155 73.253-31.295-5.893-13.793-67.36 28.777-139.852-59.747v-105.773l139.852 59.747 139.852-59.747v105.773l-31.109 13.29 5.893 13.793 40.217-17.181v-122.083zm-256.045-6.533c3.603 0 6.533 2.931 6.533 6.533s-2.931 6.534-6.533 6.534-6.533-2.932-6.533-6.534 2.93-6.533 6.533-6.533zm-221.062 246.092 5.768-69.201h14.264l5.768 69.201z"/>
        <path d="m315.048 135.762h14.999v15h-14.999z" transform="matrix(.393 -.92 .92 .393 64.087 383.592)"/>
        <path d="m342.636 147.548h14.999v15h-14.999z" transform="matrix(.393 -.92 .92 .393 69.998 416.118)"/>
    </g>
</svg>