<svg id="Capa_1" enable-background="new 0 0 512 512" height="512" viewBox="0 0 512 512" width="512" xmlns="http://www.w3.org/2000/svg"><g><path d="m507.709 159.178-247.318-145.09c-2.707-1.586-6.072-1.587-8.785.003l-164.32 96.397c-3.573 2.096-4.771 6.691-2.674 10.264 2.096 3.573 6.69 4.771 10.264 2.674l161.124-94.523 234.835 137.766-234.835 137.766-96.483-56.601 107.203-62.892c9.512-5.58 12.71-17.858 7.13-27.371-5.582-9.511-17.859-12.711-27.37-7.129l-123.832 72.646c-.86.504-1.673 1.069-2.437 1.687l-99.046-58.105 42.967-25.208c3.573-2.096 4.77-6.691 2.674-10.264-2.097-3.574-6.691-4.772-10.264-2.674l-52.249 30.653c-2.646 1.55-4.293 4.421-4.293 7.492v35.174c0 3.066 1.643 5.936 4.291 7.491l73.377 43.047v47.242c0 21.771 12.118 42.169 35.1 59.184v32.131c-4.806 4.995-7.765 11.779-7.765 19.241v19.271c0 1.553.419 3.01 1.15 4.265l-8.481 46.952c-.8 4.448 1.342 8.864 5.331 10.99 18.638 9.924 40.896 9.93 59.54 0 3.993-2.126 6.135-6.545 5.331-10.995l-8.479-46.948c.73-1.254 1.149-2.711 1.149-4.264v-19.271c0-7.468-2.964-14.257-7.776-19.253v-10.63c19.903 7.726 42.685 13.179 66.601 15.898 2.307.262 4.471 1.3 6.092 2.922l23.995 23.995c1.749 1.748 4.072 2.711 6.545 2.711s4.796-.963 6.545-2.711l23.995-23.995c1.622-1.623 3.772-2.659 6.057-2.918 45.786-5.2 85.329-19.78 111.344-41.057 3.206-2.622 3.68-7.348 1.058-10.554-2.622-3.207-7.347-3.679-10.554-1.058-23.466 19.191-61.205 32.956-103.54 37.764-5.642.641-10.959 3.203-14.972 7.215l-19.934 19.934-19.933-19.934c-4.012-4.012-9.341-6.575-15.005-7.219-24.885-2.829-48.38-8.748-68.295-17.179v-67.674l98.842 57.986c2.663 1.56 6.029 1.612 8.785-.003l158.938-93.24v38.443c0 6.541-1.543 13.073-4.587 19.418-1.792 3.734-.217 8.215 3.518 10.006 3.765 1.807 8.23.186 10.006-3.518 4.023-8.386 6.063-17.102 6.063-25.906v-47.242l73.381-43.049c2.645-1.554 4.287-4.423 4.287-7.489v-35.174c0-3.049-1.629-5.93-4.291-7.49zm-387.706 263.771v-12.771c0-7.042 5.729-12.771 12.771-12.771s12.771 5.729 12.771 12.771v12.771zm-105.003-242.506 97.92 57.445c-.101.808-.153 1.626-.153 2.45v15.244c-36.518-21.424-86.241-50.594-97.767-57.356zm77.668 119.18v-38.443l20.1 11.791v29.21c0 4.143 3.357 7.5 7.5 7.5s7.5-3.357 7.5-7.5c0-14.894 0-45.801 0-61.844 0-1.766.946-3.419 2.47-4.312l123.833-72.646c2.376-1.396 5.445-.596 6.842 1.782 1.395 2.378.595 5.447-1.782 6.843l-117.657 69.024c-2.295 1.347-3.705 3.808-3.705 6.469v135.361c-3.295-.601-6.701-.601-10 .002 0-9.171 0-36.537 0-45.679 0-4.143-3.357-7.5-7.5-7.5s-7.5 3.357-7.5 7.5v2.183c-10.739-9.972-20.101-23.365-20.101-39.741zm20.388 180.263 7.575-41.937h24.286l7.575 41.937c-12.559 5.616-26.88 5.617-39.436 0zm383.944-281.66c-82.456 48.373-174.443 102.337-241 141.383l-103.232-60.561v-17.784l98.829 57.978c2.716 1.598 6.09 1.6 8.798.005l236.605-138.804z"/></g></svg>